<svg width="512" height="512" viewBox="0 0 512 512" fill="none" xmlns="http://www.w3.org/2000/svg">
<g clip-path="url(#clip0_312_2)">
<path d="M394.667 21.3333H117.333C86.225 21.3671 56.4005 33.7399 34.4036 55.7368C12.4066 77.7337 0.033881 107.558 0 138.667L0 373.333C0.033881 404.442 12.4066 434.266 34.4036 456.263C56.4005 478.26 86.225 490.633 117.333 490.667H394.667C425.775 490.633 455.6 478.26 477.596 456.263C499.593 434.266 511.966 404.442 512 373.333V138.667C511.966 107.558 499.593 77.7337 477.596 55.7368C455.6 33.7399 425.775 21.3671 394.667 21.3333ZM394.667 85.3333C407.605 85.3763 420.077 90.1663 429.717 98.7946L291.051 237.461C281.632 246.457 269.109 251.476 256.085 251.476C243.061 251.476 230.538 246.457 221.12 237.461L82.4533 98.7946C92.0501 90.2052 104.454 85.418 117.333 85.3333H394.667ZM394.667 426.667H117.333C103.188 426.667 89.6229 421.048 79.621 411.046C69.619 401.044 64 387.478 64 373.333V171.029L175.765 282.795C186.299 293.333 198.805 301.692 212.57 307.396C226.336 313.099 241.089 316.035 255.989 316.035C270.889 316.035 285.643 313.099 299.408 307.396C313.173 301.692 325.68 293.333 336.213 282.795L448 171.029V373.333C448 387.478 442.381 401.044 432.379 411.046C422.377 421.048 408.812 426.667 394.667 426.667Z" fill="#892cff"/>
</g>
<defs>
<clipPath id="clip0_312_2">
<rect width="512" height="512" fill="#892cff"/>
</clipPath>
</defs>
</svg>
