<svg width="512" height="512" viewBox="0 0 512 512" fill="none" xmlns="http://www.w3.org/2000/svg">
<g clip-path="url(#clip0_312_6)">
<path fill-rule="evenodd" clip-rule="evenodd" d="M256 6.3147C114.624 6.3147 0 120.917 0 262.315C0 375.424 73.344 471.381 175.061 505.237C187.861 507.605 192.555 499.691 192.555 492.928C192.555 486.827 192.32 466.667 192.213 445.269C121.003 460.757 105.963 415.061 105.963 415.061C94.3147 385.472 77.5467 377.6 77.5467 377.6C54.3147 361.707 79.296 362.048 79.296 362.048C105.003 363.861 118.528 388.437 118.528 388.437C141.355 427.563 178.411 416.256 193.024 409.707C195.328 393.152 201.963 381.867 209.28 375.467C152.427 369.003 92.6507 347.051 92.6507 248.96C92.6507 221.013 102.656 198.165 119.04 180.245C116.373 173.781 107.605 147.755 121.515 112.491C121.515 112.491 143.019 105.621 191.936 138.731C212.352 133.056 234.24 130.219 256 130.112C277.76 130.219 299.669 133.056 320.128 138.731C368.981 105.6 390.464 112.491 390.464 112.491C404.395 147.755 395.627 173.781 392.981 180.245C409.387 198.165 419.328 221.013 419.328 248.96C419.328 347.285 359.445 368.939 302.443 375.275C311.616 383.211 319.808 398.805 319.808 422.677C319.808 456.939 319.509 484.501 319.509 492.928C319.509 499.733 324.117 507.733 337.088 505.216C438.763 471.317 512.021 375.403 512.021 262.336C512 120.939 397.376 6.3147 256 6.3147Z" fill="#892cff"/>
<path d="M96.96 373.888C96.4053 375.168 94.4 375.552 92.5653 374.677C90.7093 373.845 89.664 372.096 90.2613 370.837C90.816 369.536 92.8213 369.173 94.6773 370.048C96.5333 370.859 97.6 372.608 96.96 373.888Z" fill="#892cff"/>
<path d="M107.328 385.451C106.112 386.581 103.723 386.048 102.101 384.277C100.416 382.485 100.117 380.096 101.355 378.965C102.613 377.835 104.917 378.368 106.603 380.16C108.288 381.931 108.608 384.299 107.328 385.451Z" fill="#892cff"/>
<path d="M117.419 400.192C115.84 401.28 113.28 400.256 111.701 397.995C110.123 395.712 110.123 392.981 111.744 391.893C113.323 390.805 115.861 391.787 117.461 394.048C119.019 396.352 119.019 399.083 117.419 400.192Z" fill="#892cff"/>
<path d="M131.243 414.443C129.835 416 126.848 415.573 124.672 413.461C122.432 411.392 121.813 408.469 123.221 406.912C124.651 405.355 127.659 405.803 129.856 407.893C132.075 409.963 132.736 412.907 131.243 414.443Z" fill="#892cff"/>
<path d="M150.336 422.699C149.717 424.704 146.837 425.621 143.936 424.768C141.035 423.893 139.136 421.547 139.733 419.52C140.331 417.493 143.232 416.555 146.155 417.472C149.035 418.325 150.933 420.672 150.336 422.699Z" fill="#892cff"/>
<path d="M171.285 424.235C171.349 426.347 168.896 428.096 165.845 428.139C162.795 428.203 160.299 426.496 160.277 424.427C160.277 422.293 162.688 420.565 165.739 420.501C168.789 420.437 171.285 422.144 171.285 424.235Z" fill="#892cff"/>
<path d="M190.784 420.928C191.147 422.976 189.035 425.109 186.005 425.664C183.04 426.219 180.288 424.939 179.904 422.891C179.541 420.779 181.696 418.667 184.661 418.112C187.669 417.579 190.4 418.816 190.784 420.928Z" fill="#892cff"/>
</g>
<defs>
<clipPath id="clip0_312_6">
<rect width="512" height="512" fill="#892cff"/>
</clipPath>
</defs>
</svg>
