<svg width="512" height="512" viewBox="0 0 512 512" fill="none" xmlns="http://www.w3.org/2000/svg">
<g clip-path="url(#clip0_312_16)">
<path d="M256 46.1227C324.352 46.1227 332.459 46.3787 359.445 47.616C387.349 48.896 416.085 55.2533 436.416 75.584C456.939 96.1067 463.104 124.565 464.384 152.555C465.621 179.541 465.877 187.648 465.877 256C465.877 324.352 465.621 332.459 464.384 359.445C463.125 387.2 456.619 416.213 436.416 436.416C415.893 456.939 387.456 463.104 359.445 464.384C332.459 465.621 324.352 465.877 256 465.877C187.648 465.877 179.541 465.621 152.555 464.384C125.013 463.125 95.616 456.469 75.584 436.416C55.168 416 48.896 387.264 47.616 359.445C46.3787 332.459 46.1227 324.352 46.1227 256C46.1227 187.648 46.3787 179.541 47.616 152.555C48.8747 124.907 55.4453 95.7227 75.584 75.584C96.064 55.104 124.629 48.896 152.555 47.616C179.541 46.3787 187.648 46.1227 256 46.1227ZM256 0C186.475 0 177.749 0.298667 150.443 1.536C110.869 3.34933 71.5733 14.3573 42.9653 42.9653C14.2507 71.68 3.34933 110.891 1.536 150.443C0.298667 177.749 0 186.475 0 256C0 325.525 0.298667 334.251 1.536 361.557C3.34933 401.088 14.4 440.491 42.9653 469.035C71.6587 497.728 110.933 508.651 150.443 510.464C177.749 511.701 186.475 512 256 512C325.525 512 334.251 511.701 361.557 510.464C401.109 508.651 440.448 497.621 469.035 469.035C497.771 440.299 508.651 401.109 510.464 361.557C511.701 334.251 512 325.525 512 256C512 186.475 511.701 177.749 510.464 150.443C508.651 110.869 497.621 71.552 469.035 42.9653C440.384 14.3147 401.003 3.328 361.557 1.536C334.251 0.298667 325.525 0 256 0Z" fill="#892cff"/>
<path d="M256 124.544C183.403 124.544 124.544 183.403 124.544 256C124.544 328.597 183.403 387.456 256 387.456C328.597 387.456 387.456 328.597 387.456 256C387.456 183.403 328.597 124.544 256 124.544ZM256 341.333C208.875 341.333 170.667 303.125 170.667 256C170.667 208.875 208.875 170.667 256 170.667C303.125 170.667 341.333 208.875 341.333 256C341.333 303.125 303.125 341.333 256 341.333Z" fill="#892cff"/>
<path d="M392.661 150.059C409.628 150.059 423.381 136.305 423.381 119.339C423.381 102.372 409.628 88.6187 392.661 88.6187C375.695 88.6187 361.941 102.372 361.941 119.339C361.941 136.305 375.695 150.059 392.661 150.059Z" fill="#892cff"/>
</g>
<defs>
<clipPath id="clip0_312_16">
<rect width="512" height="512" fill="#892cff"/>
</clipPath>
</defs>
</svg>
