<svg width="512" height="512" viewBox="0 0 512 512" fill="none" xmlns="http://www.w3.org/2000/svg">
<g clip-path="url(#clip0_312_21)">
<path d="M490.709 460.459H495.552L486.272 446.421C491.947 446.421 494.955 442.816 494.997 438.4C494.997 438.229 494.997 438.037 494.976 437.867C494.976 431.851 491.349 428.971 483.904 428.971H471.872V460.459H476.395V446.741H481.963L490.709 460.459ZM481.643 443.179H476.395V432.533H483.051C486.485 432.533 490.411 433.088 490.411 437.589C490.411 442.752 486.464 443.179 481.643 443.179Z" fill="#892cff"/>
<path d="M368.875 406.891H304.725V306.432C304.725 282.475 304.299 251.648 271.36 251.648C237.952 251.648 232.832 277.739 232.832 304.704V406.891H168.704V200.299H230.293V228.523H231.147C243.712 207.061 267.051 194.24 291.904 195.157C356.928 195.157 368.896 237.931 368.896 293.547L368.875 406.891ZM96.32 172.053C75.7547 172.053 59.0933 155.392 59.0933 134.827C59.0933 114.261 75.7547 97.6001 96.32 97.6001C116.885 97.6001 133.547 114.261 133.547 134.827C133.547 155.392 116.885 172.053 96.32 172.053ZM128.384 406.891H64.1707V200.299H128.384V406.891ZM400.853 38.0374H31.936C14.5067 37.8454 0.213333 51.8188 0 69.2481V439.68C0.213333 457.131 14.5067 471.104 31.936 470.912H400.853C418.325 471.125 432.683 457.152 432.917 439.68V69.2268C432.661 51.7548 418.304 37.7814 400.853 38.0161" fill="#892cff"/>
<path d="M482.197 414.955C465.899 415.104 452.8 428.459 452.971 444.757C453.12 461.056 466.475 474.155 482.773 473.984C499.072 473.835 512.171 460.48 512 444.181C511.851 428.096 498.837 415.104 482.773 414.955H482.197ZM482.88 470.592C468.587 470.827 456.128 459.456 455.893 445.163C455.659 430.87 467.051 419.094 481.344 418.859C495.637 418.624 507.413 430.016 507.648 444.309C507.648 444.459 507.648 444.587 507.648 444.736C507.947 458.709 496.853 470.293 482.88 470.592H482.219Z" fill="#892cff"/>
</g>
<defs>
<clipPath id="clip0_312_21">
<rect width="512" height="512" fill="#892cff"/>
</clipPath>
</defs>
</svg>
