<svg width="512" height="512" viewBox="0 0 512 512" fill="none" xmlns="http://www.w3.org/2000/svg">
<g clip-path="url(#clip0_312_26)">
<path d="M277.333 21.3332C277.333 15.6753 279.581 10.2491 283.582 6.24828C287.582 2.2475 293.009 -0.000111042 298.667 -0.000111042C355.227 0.062003 409.453 22.5581 449.447 62.5524C489.442 102.547 511.938 156.773 512 213.333C512 218.991 509.752 224.417 505.752 228.418C501.751 232.419 496.325 234.667 490.667 234.667C485.009 234.667 479.582 232.419 475.582 228.418C471.581 224.417 469.333 218.991 469.333 213.333C469.282 168.085 451.285 124.705 419.29 92.7098C387.295 60.7146 343.915 42.7174 298.667 42.6666C293.009 42.6666 287.582 40.4189 283.582 36.4182C279.581 32.4174 277.333 26.9912 277.333 21.3332ZM298.667 128C321.298 128 343.003 136.99 359.006 152.993C375.01 168.997 384 190.701 384 213.333C384 218.991 386.248 224.417 390.248 228.418C394.249 232.419 399.675 234.667 405.333 234.667C410.991 234.667 416.417 232.419 420.418 228.418C424.419 224.417 426.667 218.991 426.667 213.333C426.633 179.396 413.136 146.858 389.139 122.861C365.142 98.8637 332.604 85.3671 298.667 85.3332C293.009 85.3332 287.582 87.5808 283.582 91.5816C279.581 95.5824 277.333 101.009 277.333 106.667C277.333 112.325 279.581 117.751 283.582 121.751C287.582 125.752 293.009 128 298.667 128ZM492.651 357.099C505.014 369.496 511.956 386.289 511.956 403.797C511.956 421.305 505.014 438.099 492.651 450.496L473.237 472.875C298.517 640.149 -126.656 215.083 38.0373 39.8079L62.5707 18.4746C74.9817 6.457 91.6252 -0.191064 108.9 -0.0313678C126.175 0.128329 142.693 7.08295 154.88 19.3279C155.541 19.9892 195.072 71.3386 195.072 71.3386C206.802 83.6613 213.331 100.03 213.303 117.043C213.276 134.056 206.693 150.404 194.923 162.688L170.219 193.749C183.89 226.968 203.991 257.157 229.366 282.583C254.74 308.009 284.889 328.171 318.08 341.909L349.333 317.056C361.619 305.295 377.964 298.72 394.972 298.696C411.979 298.672 428.342 305.202 440.661 316.928C440.661 316.928 491.989 356.437 492.651 357.099ZM463.296 388.117C463.296 388.117 412.245 348.843 411.584 348.181C407.189 343.823 401.25 341.378 395.061 341.378C388.872 341.378 382.934 343.823 378.539 348.181C377.963 348.779 334.933 383.061 334.933 383.061C332.034 385.369 328.583 386.882 324.92 387.451C321.258 388.019 317.511 387.624 314.048 386.304C271.05 370.295 231.994 345.232 199.527 312.812C167.06 280.393 141.939 241.374 125.867 198.4C124.442 194.89 123.977 191.063 124.521 187.314C125.064 183.564 126.597 180.028 128.96 177.067C128.96 177.067 163.243 134.016 163.819 133.461C168.176 129.066 170.621 123.128 170.621 116.939C170.621 110.749 168.176 104.811 163.819 100.416C163.157 99.7759 123.883 48.6826 123.883 48.6826C119.422 44.6827 113.6 42.5406 107.611 42.6953C101.621 42.85 95.9177 45.2898 91.6693 49.5146L67.136 70.8479C-53.2267 215.573 315.221 563.584 442.048 443.733L461.483 421.333C466.037 417.115 468.772 411.291 469.111 405.092C469.449 398.894 467.364 392.806 463.296 388.117Z" fill="#892cff"/>
</g>
<defs>
<clipPath id="clip0_312_26">
<rect width="512" height="512" fill="#892cff"/>
</clipPath>
</defs>
</svg>
